<?xml version="1.0" standalone="no"?>
<!DOCTYPE svg PUBLIC "-//W3C//DTD SVG 20010904//EN"
 "http://www.w3.org/TR/2001/REC-SVG-20010904/DTD/svg10.dtd">
<svg version="1.0" xmlns="http://www.w3.org/2000/svg"
 width="89.000000pt" height="50.000000pt" viewBox="0 0 89.000000 50.000000"
 preserveAspectRatio="xMidYMid meet">
<metadata>
Created by potrace 1.16, written by Peter Selinger 2001-2019
</metadata>
<g transform="translate(0.000000,50.000000) scale(0.100000,-0.100000)"
fill="#000000" stroke="none">
<path d="M660 434 c-19 -8 -50 -31 -67 -52 -28 -32 -33 -34 -33 -16 0 26 -43
56 -73 52 -14 -2 -23 -14 -30 -38 -11 -45 -27 -62 -27 -29 0 54 -73 77 -96 31
-7 -14 -14 -19 -18 -13 -11 17 -96 51 -129 51 -17 0 -50 -9 -74 -21 -82 -40
-110 -149 -62 -244 30 -61 59 -82 131 -96 51 -10 61 -9 96 9 22 11 49 18 59
16 11 -3 25 1 32 10 11 13 15 13 33 -4 25 -23 74 -17 100 14 14 17 17 18 18 5
0 -16 34 -34 55 -29 6 2 43 2 83 1 113 -3 158 28 195 135 13 35 12 41 -3 57
-9 9 -32 17 -51 18 l-34 0 33 16 c17 9 32 22 32 29 0 7 5 14 11 16 17 6 -41
69 -78 84 -40 17 -59 17 -103 -2z m137 -37 l36 -33 -37 -22 -36 -22 -21 21
c-56 56 -153 -45 -115 -119 25 -49 69 -56 113 -17 l28 24 -33 1 c-29 0 -33 3
-30 23 3 20 9 22 67 25 l63 3 -7 -38 c-17 -91 -65 -133 -153 -133 -29 0 -51 4
-48 9 3 4 -9 47 -26 94 -36 100 -34 120 21 177 35 37 42 40 90 40 44 0 56 -5
88 -33z m-535 -9 c10 -5 26 -25 37 -46 39 -79 33 -179 -13 -218 -14 -12 -23
-24 -20 -27 7 -7 -54 -27 -80 -27 -19 1 -18 3 7 16 35 19 35 26 -2 13 -35 -12
-73 -8 -96 11 -49 40 -71 151 -41 208 41 78 134 110 208 70z m303 -126 l43
-133 -35 -14 c-20 -8 -37 -15 -39 -15 -1 0 -8 26 -14 57 -18 91 -21 93 -44 23
-18 -52 -27 -66 -46 -68 -30 -5 -37 9 -46 86 -8 74 -17 67 -34 -25 -7 -35 -16
-63 -19 -63 -17 0 -18 14 -5 45 16 40 18 96 4 144 -12 44 10 91 44 91 19 0 25
-8 36 -55 7 -31 17 -58 21 -60 4 -3 15 25 25 61 16 60 19 65 42 62 23 -3 29
-15 67 -136z"/>
<path d="M146 278 c-21 -30 -22 -151 -2 -167 11 -9 20 -9 35 -2 11 6 36 11 55
11 l36 0 0 50 c0 28 -7 64 -15 80 -27 52 -82 66 -109 28z"/>
</g>
</svg>
